<svg width="2022" height="647" viewBox="0 0 2022 647" fill="none" xmlns="http://www.w3.org/2000/svg">
<g clip-path="url(#clip0_110_25)" filter="url(#filter0_d_110_25)">
<mask id="mask0_110_25" style="mask-type:luminance" maskUnits="userSpaceOnUse" x="4" y="0" width="2014" height="639">
<path d="M1382.01 228.476C1324.38 228.476 1275.47 248.085 1235.4 287.43C1195.34 326.774 1175.24 374.468 1175.24 430.512C1175.24 490.098 1194.83 539.437 1234.14 578.781C1273.45 618.632 1322.11 638.62 1380.24 638.62C1438.38 638.62 1488.43 619.138 1528.75 580.047C1568.82 540.702 1588.91 491.996 1588.91 433.801C1588.91 375.607 1568.94 327.533 1529.13 287.936C1488.81 248.338 1439.65 228.476 1381.76 228.476H1382.01ZM1466.06 524.635C1445.08 547.281 1417.02 558.54 1382.01 558.54C1347 558.54 1319.2 547.154 1297.96 524.256C1277.24 501.611 1266.87 470.995 1266.87 432.157C1266.87 395.975 1277.49 366.498 1298.72 343.6C1319.96 320.702 1347.76 309.316 1382.01 309.316C1416.26 309.316 1444.83 320.702 1466.06 343.6C1487.04 366.245 1497.53 396.355 1497.53 434.054C1497.53 471.754 1487.04 501.99 1466.06 524.509V524.635ZM1985.39 271.11C1960.11 242.645 1924.98 228.476 1879.86 228.476C1840.55 228.476 1805.29 244.037 1773.94 275.158V239.23H1683.96V627.488H1773.94V440.127C1773.94 391.8 1780.01 357.896 1792.27 338.54C1804.78 318.931 1825.89 309.063 1855.59 309.063C1882.89 309.063 1901.85 316.527 1912.09 331.329C1922.7 346.004 1928.01 372.444 1928.01 410.65V627.488H2018V389.523C2018 334.744 2007.13 295.273 1985.39 271.11ZM350.936 394.204H504.245C499.948 437.47 479.726 474.664 443.326 505.785C406.926 536.654 365.977 552.088 320.224 552.088C266.635 552.088 216.838 531.467 170.833 490.351C121.668 445.946 97.1483 389.523 97.1483 320.955C97.1483 252.387 119.14 199.253 163.249 155.101C207.359 110.19 261.832 87.6712 326.922 87.6712C399.343 87.6712 460.894 121.323 511.323 188.499L577.424 125.118C538.876 80.9662 499.822 49.0857 459.883 29.4767C418.175 9.86775 373.307 0 325.279 0C235.796 0 159.837 31.2479 97.5275 93.7436C35.2179 155.86 4 231.639 4 320.955C4 410.271 34.7124 483.393 96.0108 545.762C157.309 608.005 230.994 639 317.064 639C403.135 639 477.83 606.867 534.958 542.6C560.236 513.882 578.056 483.014 588.673 450.121C599.542 414.572 604.977 373.583 604.977 327.407V307.039H350.936V394.33V394.204ZM990.462 284.267C954.568 247.073 914.123 228.476 869.003 228.476C816.678 228.476 773.2 247.832 738.317 286.671C703.56 325.509 686.118 373.962 686.118 432.157C686.118 490.351 703.56 540.829 738.317 580.426C773.326 619.265 817.689 638.62 871.404 638.62C913.87 638.62 953.556 621.289 990.462 586.752V627.361H1080.45V239.103H990.462V284.141V284.267ZM965.437 524.256C944.962 547.154 918.168 558.54 885.054 558.54C853.962 558.54 828.179 546.775 807.831 523.117C787.861 499.713 778.003 469.477 778.003 432.283C778.003 397.493 788.24 368.269 808.715 344.612C829.443 321.208 855.226 309.569 885.939 309.569C918.547 309.569 945.088 321.081 965.563 344.233C986.038 367.89 996.276 397.873 996.276 434.308C996.276 470.742 986.038 500.725 965.563 524.382L965.437 524.256Z" fill="white"/>
</mask>
<g mask="url(#mask0_110_25)">
<path d="M2022.04 -692.514H-0.170898V1331.64H2022.04V-692.514Z" fill="url(#paint0_linear_110_25)"/>
</g>
</g>
<defs>
<filter id="filter0_d_110_25" x="0" y="0" width="2022" height="647" filterUnits="userSpaceOnUse" color-interpolation-filters="sRGB">
<feFlood flood-opacity="0" result="BackgroundImageFix"/>
<feColorMatrix in="SourceAlpha" type="matrix" values="0 0 0 0 0 0 0 0 0 0 0 0 0 0 0 0 0 0 127 0" result="hardAlpha"/>
<feOffset dy="4"/>
<feGaussianBlur stdDeviation="2"/>
<feComposite in2="hardAlpha" operator="out"/>
<feColorMatrix type="matrix" values="0 0 0 0 0 0 0 0 0 0 0 0 0 0 0 0 0 0 0.25 0"/>
<feBlend mode="normal" in2="BackgroundImageFix" result="effect1_dropShadow_110_25"/>
<feBlend mode="normal" in="SourceGraphic" in2="effect1_dropShadow_110_25" result="shape"/>
</filter>
<linearGradient id="paint0_linear_110_25" x1="-0.170898" y1="319.563" x2="2022.04" y2="319.563" gradientUnits="userSpaceOnUse">
<stop stop-color="#4796E3"/>
<stop offset="1" stop-color="#C7667A"/>
</linearGradient>
<clipPath id="clip0_110_25">
<rect width="2014" height="639" fill="white" transform="translate(4)"/>
</clipPath>
</defs>
</svg>
